<svg xmlns="http://www.w3.org/2000/svg" width="18" height="19" viewBox="0 0 18 19" fill="none">
      <path d="M9.0001 12.5002C8.85176 12.5002 8.70676 12.5442 8.58342 12.6266C8.46008 12.709 8.36395 12.8261 8.30719 12.9632C8.25042 13.1002 8.23557 13.251 8.26451 13.3965C8.29345 13.542 8.36488 13.6756 8.46977 13.7805C8.57466 13.8854 8.70829 13.9569 8.85378 13.9858C8.99927 14.0147 9.15007 13.9999 9.28711 13.9431C9.42416 13.8863 9.54129 13.7902 9.6237 13.6669C9.70611 13.5435 9.7501 13.3985 9.7501 13.2502C9.7501 13.0513 9.67108 12.8605 9.53043 12.7199C9.38978 12.5792 9.19901 12.5002 9.0001 12.5002ZM17.0026 13.6027L10.9651 3.1027C10.77 2.75284 10.4849 2.46142 10.1395 2.25856C9.79405 2.05569 9.40071 1.94873 9.0001 1.94873C8.59949 1.94873 8.20615 2.05569 7.8607 2.25856C7.51526 2.46142 7.23024 2.75284 7.0351 3.1027L1.0351 13.6027C0.833195 13.9432 0.724705 14.331 0.720581 14.7268C0.716458 15.1227 0.816846 15.5126 1.01161 15.8572C1.20638 16.2019 1.48863 16.489 1.82986 16.6897C2.1711 16.8904 2.55924 16.9975 2.9551 17.0002H15.0451C15.4441 17.0041 15.837 16.9019 16.1835 16.7039C16.53 16.5059 16.8176 16.2193 17.0168 15.8736C17.2161 15.5278 17.3197 15.1353 17.3172 14.7362C17.3147 14.3372 17.2061 13.946 17.0026 13.6027ZM15.7051 15.1027C15.6394 15.2197 15.5434 15.3169 15.4274 15.3841C15.3113 15.4514 15.1793 15.4863 15.0451 15.4852H2.9551C2.82093 15.4863 2.68892 15.4514 2.57284 15.3841C2.45675 15.3169 2.36084 15.2197 2.2951 15.1027C2.22927 14.9887 2.19462 14.8594 2.19462 14.7277C2.19462 14.5961 2.22927 14.4667 2.2951 14.3527L8.2951 3.8527C8.35804 3.72985 8.45366 3.62675 8.57143 3.55476C8.68921 3.48277 8.82456 3.44467 8.9626 3.44467C9.10063 3.44467 9.23599 3.48277 9.35376 3.55476C9.47154 3.62675 9.56716 3.72985 9.6301 3.8527L15.6676 14.3527C15.742 14.4651 15.7848 14.5954 15.7914 14.7301C15.798 14.8647 15.7682 14.9986 15.7051 15.1177V15.1027ZM9.0001 6.5002C8.80119 6.5002 8.61042 6.57922 8.46977 6.71987C8.32912 6.86053 8.2501 7.05129 8.2501 7.2502V10.2502C8.2501 10.4491 8.32912 10.6399 8.46977 10.7805C8.61042 10.9212 8.80119 11.0002 9.0001 11.0002C9.19901 11.0002 9.38978 10.9212 9.53043 10.7805C9.67108 10.6399 9.7501 10.4491 9.7501 10.2502V7.2502C9.7501 7.05129 9.67108 6.86053 9.53043 6.71987C9.38978 6.57922 9.19901 6.5002 9.0001 6.5002Z" fill="#FB6167"></path>
    </svg>