<svg viewBox="0 0 24 24" height="24" width="24" xmlns:xlink="http://www.w3.org/1999/xlink" xmlns="http://www.w3.org/2000/svg">
  <defs>
    <clipPath id="clip-path">
      <rect fill="none" height="13.322" width="9.252" data-name="Rectangle 224" id="Rectangle_224"></rect>
    </clipPath>
  </defs>
  <g transform="translate(-36 -915)" data-name="Group 22902" id="Group_22902">
    <g transform="translate(36 915)" id="noun-color-wheel-6886434">
      <g transform="translate(0 0)" data-name="Group 22899" id="Group_22899">
        <path fill="#a03b34" transform="translate(-11.103 -6.281)" d="M22.675,6.281v3.861a8.106,8.106,0,0,0-6.394,3.694L12.938,11.9a11.977,11.977,0,0,1,9.737-5.623Z" data-name="Path 57039" id="Path_57039"></path>
        <path fill="#be1f1f" transform="translate(-6.25 -23.123)" d="M10.107,35.123A8.046,8.046,0,0,0,11,38.813L7.651,40.746a11.981,11.981,0,0,1,0-11.246L11,31.433a8.046,8.046,0,0,0-.891,3.69Z" data-name="Path 57040" id="Path_57040"></path>
        <path fill="#83443e" transform="translate(-11.103 -49.728)" d="M22.675,69.866v3.861A11.967,11.967,0,0,1,12.938,68.1l3.343-1.933a8.107,8.107,0,0,0,6.394,3.694Z" data-name="Path 57041" id="Path_57041"></path>
        <path fill="#8d171f" transform="translate(-39.134 -49.728)" d="M61.3,68.1a11.977,11.977,0,0,1-9.737,5.623V69.866a8.106,8.106,0,0,0,6.394-3.694Z" data-name="Path 57042" id="Path_57042"></path>
        <path fill="#ae2543" transform="translate(-57.186 -23.123)" d="M81.186,35.123a11.9,11.9,0,0,1-1.4,5.623l-3.347-1.933a8.083,8.083,0,0,0,0-7.38L79.785,29.5a11.9,11.9,0,0,1,1.4,5.623Z" data-name="Path 57043" id="Path_57043"></path>
        <path fill="#95464e" transform="translate(-39.134 -6.281)" d="M61.3,11.9l-3.343,1.933a8.107,8.107,0,0,0-6.394-3.694V6.281A11.977,11.977,0,0,1,61.3,11.9Z" data-name="Path 57044" id="Path_57044"></path>
      </g>
    </g>
    <g transform="translate(43 920.784)" data-name="Group 22893" id="Group_22893">
      <g clip-path="url(#clip-path)" data-name="Group 161" id="Group_161">
        <path stroke-width="0.3" stroke="#000" transform="translate(1.437 1.437)" d="M2.916,7.407H2.372a.343.343,0,0,1-.36-.358,8.026,8.026,0,0,1,.052-1.108A2.6,2.6,0,0,1,2.4,4.919a2.076,2.076,0,0,1,.533-.568c.182-.139.376-.262.562-.4a2.432,2.432,0,0,0,.569-.533,1.157,1.157,0,0,0,.188-1.056.976.976,0,0,0-.6-.647,1.279,1.279,0,0,0-1.209.1,1.078,1.078,0,0,0-.488.694.346.346,0,0,1-.272.284.367.367,0,0,1-.082.007H.352A.335.335,0,0,1,0,2.426,2.546,2.546,0,0,1,.5,1.142,2.741,2.741,0,0,1,1.859.2,4.225,4.225,0,0,1,3.387.006,4.193,4.193,0,0,1,4.648.243,2.842,2.842,0,0,1,5.6.8a2.28,2.28,0,0,1,.763,1.5,2.775,2.775,0,0,1-.084,1.1,2.4,2.4,0,0,1-.692,1.083,4.847,4.847,0,0,1-.762.555,2.384,2.384,0,0,0-.662.565,1.559,1.559,0,0,0-.315.813c-.02.207-.023.417-.027.625a.347.347,0,0,1-.374.371H2.916" data-name="Path 119" id="Path_119"></path>
        <path transform="translate(-86.867 -397.056)" d="M91.253,408.94a1.137,1.137,0,1,1,.011-2.273,1.137,1.137,0,1,1-.011,2.273" data-name="Path 120" id="Path_120"></path>
      </g>
    </g>
  </g>
</svg>
