<svg viewBox="0 0 18.18 18.18" height="18.18" width="18.18" xmlns="http://www.w3.org/2000/svg">
  <g transform="translate(-1.9 -1.9)" id="location_7026129">
    <g transform="translate(4.995 12.788)" data-sanitized-data-name="Group 122" data-name="Group 122" id="Group_122">
      <path fill-rule="evenodd" stroke-width="0.2" stroke="#000" transform="translate(-7.33 -23.535)" d="M7.931,26.53a.6.6,0,1,1-.6.6A.6.6,0,0,1,7.931,26.53Z" data-sanitized-data-name="Path 103" data-name="Path 103" id="Path_103"></path>
      <path fill-rule="evenodd" stroke-width="0.2" stroke="#000" transform="translate(-9.201 -23.535)" d="M12.2,26.53a.6.6,0,1,1-.6.6A.6.6,0,0,1,12.2,26.53Z" data-sanitized-data-name="Path 104" data-name="Path 104" id="Path_104"></path>
      <path fill-rule="evenodd" stroke-width="0.2" stroke="#000" transform="translate(-15.742 -21.2)" d="M27.131,21.2a.6.6,0,1,1-.6.6A.6.6,0,0,1,27.131,21.2Z" data-sanitized-data-name="Path 105" data-name="Path 105" id="Path_105"></path>
    </g>
    <path stroke-width="0.2" stroke="#000" transform="translate(0 0)" d="M19.1,2.877A2.978,2.978,0,0,0,16.985,2H4.995A3,3,0,0,0,2,4.995v11.99A3,3,0,0,0,4.995,19.98h7.192v-1.2H4.995a1.8,1.8,0,0,1-1.8-1.8V4.995a1.8,1.8,0,0,1,1.8-1.8H7.99V7.99a.6.6,0,0,0,.747.562l2.247-.562,2.247.562a.624.624,0,0,0,.517-.107.6.6,0,0,0,.23-.472V3.2h2.995a1.8,1.8,0,0,1,1.8,1.8v4.2H19.98v-4.2A2.972,2.972,0,0,0,19.1,2.877ZM12.788,7.225l-1.652-.41a.59.59,0,0,0-.292,0l-1.652.41V3.2h3.6Z" data-sanitized-data-name="Path 106" data-name="Path 106" id="Path_106"></path>
    <path stroke-width="0.2" stroke="#000" transform="translate(-8.412 -6.541)" d="M24.8,26.521a.6.6,0,0,1-.36-.124c-.129-.1-3.236-2.483-3.236-5.872a3.6,3.6,0,0,1,7.192,0c0,3.371-3.1,5.77-3.236,5.872A.6.6,0,0,1,24.8,26.521Zm0-8.389a2.4,2.4,0,0,0-2.4,2.4,6.769,6.769,0,0,0,2.4,4.607,6.818,6.818,0,0,0,2.4-4.607,2.4,2.4,0,0,0-2.4-2.4Z" data-sanitized-data-name="Path 107" data-name="Path 107" id="Path_107"></path>
  </g>
</svg>
